<?xml version="1.0" encoding="UTF-8"?>
<svg width="240" height="60" viewBox="0 0 240 60" fill="none" xmlns="http://www.w3.org/2000/svg">
  <!-- Hexagon Icon -->
  <path d="M30 10L50 21.6667V45L30 56.6667L10 45V21.6667L30 10Z" fill="#1A55B3"/>
  
  <!-- Inner Hexagon with molecular structure -->
  <path d="M30 16.6667L43.3333 25V41.6667L30 50L16.6667 41.6667V25L30 16.6667Z" fill="#2A65C3"/>
  
  <!-- White Molecule Lines -->
  <path d="M30 21.6667L40 30L30 38.3333L20 30L30 21.6667Z" stroke="white" stroke-width="1.5"/>
  <path d="M30 30V21.6667" stroke="white" stroke-width="1.5"/>
  <path d="M30 30V38.3333" stroke="white" stroke-width="1.5"/>
  <path d="M30 30H20" stroke="white" stroke-width="1.5"/>
  <path d="M30 30H40" stroke="white" stroke-width="1.5"/>
  
  <!-- Atoms as white dots -->
  <circle cx="30" cy="21.6667" r="3" fill="white"/>
  <circle cx="40" cy="30" r="3" fill="white"/>
  <circle cx="30" cy="38.3333" r="3" fill="white"/>
  <circle cx="20" cy="30" r="3" fill="white"/>
  <circle cx="30" cy="30" r="4" fill="white"/>
  
  <!-- Company Name -->
  <path d="M65 20H72V29H85V20H92V49H85V36H72V49H65V20Z" fill="#1A55B3"/>
  <path d="M95 20H103L113 49H105L104 45H94L93 49H85L95 20ZM96 39H102L99 30L96 39Z" fill="#1A55B3"/>
  <path d="M116 20H123L129 34L135 20H142V49H135V34L129 48L123 34V49H116V20Z" fill="#1A55B3"/>
  <path d="M145 20H157L167 37V20H174V49H162L152 32V49H145V20Z" fill="#1A55B3"/>
  
  <path d="M178 29C175 29 172 32 172 34.5C172 37 175 40 178 40C181 40 184 37 184 34.5C184 32 181 29 178 29ZM178 36C177 36 176 35 176 34.5C176 34 177 33 178 33C179 33 180 34 180 34.5C180 35 179 36 178 36Z" fill="#4F87D6"/>
  <path d="M195 29C192 29 189 32 189 34.5C189 37 192 40 195 40C198 40 201 37 201 34.5C201 32 198 29 195 29ZM195 36C194 36 193 35 193 34.5C193 34 194 33 195 33C196 33 197 34 197 34.5C197 35 196 36 195 36Z" fill="#4F87D6"/>
  <path d="M214 29H206V33H214V37H206V40H214V44H200V29H214V29Z" fill="#4F87D6"/>
  <path d="M223 29C220 29 217 32 217 34.5C217 37 220 40 223 40C226 40 229 37 229 34.5C229 32 226 29 223 29ZM223 36C222 36 221 35 221 34.5C221 34 222 33 223 33C224 33 225 34 225 34.5C225 35 224 36 223 36Z" fill="#4F87D6"/>
  <path d="M238 29C235 29 232 32 232 34.5C232 37 235 40 238 40C240 40 242 39 243 37.5L240 35.5C239.5 36 239 36.5 238 36.5C237 36.5 236 35.5 236 34.5C236 33.5 237 32.5 238 32.5C239 32.5 239.5 33 240 33.5L243 31.5C242 30 240 29 238 29Z" fill="#4F87D6"/>
</svg>