<?xml version="1.0" encoding="UTF-8"?>
<svg width="120px" height="120px" viewBox="0 0 120 120" version="1.1" xmlns="http://www.w3.org/2000/svg">
  <g stroke="none" stroke-width="1" fill="none" fill-rule="evenodd">
    <!-- Main molecule body - center circle -->
    <circle cx="60" cy="60" r="25" fill="#1a56db" class="main-atom" />
    
    <!-- Eyes -->
    <circle cx="52" cy="52" r="5" fill="white" class="eye" />
    <circle cx="68" cy="52" r="5" fill="white" class="eye" />
    <circle cx="52" cy="52" r="2.5" fill="#000" class="pupil" />
    <circle cx="68" cy="52" r="2.5" fill="#000" class="pupil" />
    
    <!-- Smile -->
    <path d="M50,65 Q60,75 70,65" stroke="white" stroke-width="2.5" fill="none" class="smile" />
    
    <!-- Atoms connected to main body -->
    <circle cx="30" cy="40" r="10" fill="#4299e1" class="atom-1" />
    <circle cx="90" cy="40" r="10" fill="#4299e1" class="atom-2" />
    <circle cx="40" cy="90" r="10" fill="#4299e1" class="atom-3" />
    <circle cx="80" cy="90" r="10" fill="#4299e1" class="atom-4" />
    
    <!-- Bonds connecting atoms -->
    <line x1="49" y1="49" x2="36" y2="46" stroke="#4299e1" stroke-width="3" class="bond" />
    <line x1="71" y1="49" x2="84" y2="46" stroke="#4299e1" stroke-width="3" class="bond" />
    <line x1="49" y1="71" x2="46" y2="84" stroke="#4299e1" stroke-width="3" class="bond" />
    <line x1="71" y1="71" x2="74" y2="84" stroke="#4299e1" stroke-width="3" class="bond" />
    
    <!-- Small accent atoms -->
    <circle cx="20" cy="20" r="5" fill="#90cdf4" class="accent-atom" />
    <circle cx="100" cy="20" r="5" fill="#90cdf4" class="accent-atom" />
    <circle cx="20" cy="100" r="5" fill="#90cdf4" class="accent-atom" />
    <circle cx="100" cy="100" r="5" fill="#90cdf4" class="accent-atom" />
  </g>
</svg>