<?xml version="1.0" standalone="yes"?>
<svg width="300" height="300" xmlns="http://www.w3.org/2000/svg" version="1.1">
<rect x="0" y="0" width="300" height="300" fill="#ffffff"/>
<g transform="scale(6)">
<g transform="translate(4,4)">
<path fill-rule="evenodd" d="M0 0h7v1h-1v1h-1v-1h-4v2h-1v-3M8 0h1v2h-1v-2M10 0h2v1h1v-1h1v1h1v-1h1v1h-1v1h1v2h1v1h1v2h-2v3h-1v-3h-1v1h-1v-1h-1v1h-1v-3h-1v-2h-1v1h-1v-1h-1v1h-1v-2h-1v-1h1v-1h2v-1h1v1h1v-1h1v1h1v-1h-1v-1M18 0h3v1h-3v-1M22 0h7v7h-3v-1h2v-5h-5v2h-1v-3M27 7h2v1h-2v-1M24 8h1v1h-1v-1M26 8h1v2h-1v-2M28 8h1v3h-1v1h1v1h-2v-5M8 9h1v1h1v1h-1v1h-1v1h-1v1h-2v-1h1v-3h1v-1h1M12 9h1v1h-1v-1M14 9h1v1h-1v-1M25 9h1v1h-1v-1M0 10h1v1h-1v-1M2 10h5v3h1v2h-2v-1h-1v-1h1v-2h-1v3h-1v-3h-2v-1M12 10h2v4h-2v-1h1v-2h-1v-1M15 10h1v1h-1v-1M18 10h1v1h-1v-1M25 10h1v2h-1v-2M0 12h1v2h-1v-2M15 12h1v2h-1v-2M17 12h1v1h-1v-1M20 12h1v2h-1v-2M22 12h2v1h-2v-1M27 12h2v3h-1v1h-1v3h1v3h-1v1h-2v-1h1v-1h-1v-1h1v-2h-1v-1h-2v-1h3v-1h1v-3M8 13h1v2h-1v-2M16 13h1v1h-1v-1M19 13h1v1h1v1h-1v2h-1v1h2v1h2v1h-3v-1h-1v-1h-1v-2h1v-2M23 13h1v1h-1v-1M0 15h2v1h4v1h-1v2h-1v-1h-1v-2h-1v2h-2v-3M3 15h1v1h-1v-1M5 15h1v1h-1v-1M16 15h2v1h-2v-1M23 15h1v1h-1v-1M25 15h1v1h-1v-1M24 16h1v1h-1v-1M9 17h1v1h-1v-1M16 17h1v1h-1v-1M18 17h1v1h-1v-1M22 17h1v1h-1v-1M24 17h1v1h-1v-1M8 18h1v1h-1v-1M12 18h1v1h-1v-1M14 18h1v2h1v1h1v1h-1v1h-1v-1h-1v-1h-1v-2h1v-1M17 18h1v1h-1v-1M19 18h1v1h-1v-1M23 18h1v2h1v1h-3v-1h-1v-2h2M9 19h2v3h-1v1h-1v2h-1v-1h-1v-2h1v-2h1v-1M12 19h1v2h-1v-2M18 19h1v1h-1v-1M20 19h1v1h-1v-1M28 19h1v3h-2v1h-1v-1h-1v-2h1v1h2v-2M0 20h7v1h-1v1h-1v-1h-1v2h-1v1h3v1h-3v1h-3v-1h2v-1h-2v-4M22 20h1v1h-1v-1M24 21h2v2h-1v1h-1v-3M0 25h1v1h-1v-1M2 25h3v1h-3v-1M7 25h1v1h-1v-1M10 25h2v1h-2v-1M13 25h3v1h-3v-1M18 25h1v1h-1v-1M21 25h2v2h-2v-2M26 25h1v2h-1v-2M28 25h1v1h-1v-1M17 26h1v2h-3v-1h2v-1M19 26h1v2h-1v-2M24 26h1v1h-1v-1M27 26h1v3h-1v-1h-1v-1h1v-1M0 27h7v1h-7v-1M9 27h1v1h-1v-1M11 27h2v1h-2v-1M16 27h1v1h-1v-1M24 27h1v1h-1v-1M20 28h1v1h-1v-1M23 28h1v1h-1v-1M25 28h1v1h-1v-1" fill="#1a56db"/>
</g>
</g>
</svg>
