<svg width="400" height="400" viewBox="0 0 400 400" xmlns="http://www.w3.org/2000/svg">
  <rect width="400" height="400" fill="white"/>
  <g transform="translate(50, 50) scale(3)">
    <!-- WhatsApp Logo in Center -->
    <circle cx="50" cy="50" r="10" fill="#25D366"/>
    <path d="M55 50c0 2.76-2.24 5-5 5-2.76 0-5-2.24-5-5 0-2.76 2.24-5 5-5 2.76 0 5 2.24 5 5z" fill="white"/>
    <path d="M55.9 44c-1.34-1.34-2.9-2.39-4.65-3.08-1.75-0.7-3.62-1.05-5.51-1.05-2.37 0-4.7 0.47-6.88 1.38-2.18 0.92-4.13 2.23-5.8 3.9-1.68 1.68-2.99 3.63-3.9 5.8-0.92 2.18-1.38 4.51-1.38 6.88 0 1.89 0.35 3.76 1.05 5.51 0.7 1.75 1.74 3.31 3.08 4.65l1.17 1.17-2.56 7.69 7.69-2.56 1.17 1.17c1.34 1.34 2.9 2.39 4.65 3.08 1.75 0.7 3.62 1.05 5.51 1.05 2.37 0 4.7-0.47 6.88-1.38 2.18-0.92 4.13-2.23 5.8-3.9 1.68-1.68 2.99-3.63 3.9-5.8 0.92-2.18 1.38-4.51 1.38-6.88 0-1.89-0.35-3.76-1.05-5.51-0.7-1.75-1.74-3.31-3.08-4.65L55.9 44z" fill="#25D366"/>
    
    <!-- QR Code Pattern - Dark Blocks -->
    <rect x="20" y="20" width="6" height="6" fill="#1a56db"/>
    <rect x="26" y="20" width="6" height="6" fill="#1a56db"/>
    <rect x="32" y="20" width="6" height="6" fill="#1a56db"/>
    <rect x="38" y="20" width="6" height="6" fill="#1a56db"/>
    <rect x="44" y="20" width="6" height="6" fill="#1a56db"/>
    <rect x="50" y="20" width="6" height="6" fill="#1a56db"/>
    <rect x="56" y="20" width="6" height="6" fill="#1a56db"/>
    <rect x="74" y="20" width="6" height="6" fill="#1a56db"/>
    
    <rect x="20" y="26" width="6" height="6" fill="#1a56db"/>
    <rect x="56" y="26" width="6" height="6" fill="#1a56db"/>
    <rect x="62" y="26" width="6" height="6" fill="#1a56db"/>
    <rect x="74" y="26" width="6" height="6" fill="#1a56db"/>
    
    <rect x="20" y="32" width="6" height="6" fill="#1a56db"/>
    <rect x="32" y="32" width="6" height="6" fill="#1a56db"/>
    <rect x="38" y="32" width="6" height="6" fill="#1a56db"/>
    <rect x="44" y="32" width="6" height="6" fill="#1a56db"/>
    <rect x="56" y="32" width="6" height="6" fill="#1a56db"/>
    <rect x="74" y="32" width="6" height="6" fill="#1a56db"/>
    
    <rect x="20" y="38" width="6" height="6" fill="#1a56db"/>
    <rect x="32" y="38" width="6" height="6" fill="#1a56db"/>
    <rect x="44" y="38" width="6" height="6" fill="#1a56db"/>
    <rect x="56" y="38" width="6" height="6" fill="#1a56db"/>
    <rect x="62" y="38" width="6" height="6" fill="#1a56db"/>
    <rect x="74" y="38" width="6" height="6" fill="#1a56db"/>
    
    <rect x="20" y="44" width="6" height="6" fill="#1a56db"/>
    <rect x="32" y="44" width="6" height="6" fill="#1a56db"/>
    <rect x="44" y="44" width="6" height="6" fill="#1a56db"/>
    <rect x="56" y="44" width="6" height="6" fill="#1a56db"/>
    <rect x="74" y="44" width="6" height="6" fill="#1a56db"/>
    
    <rect x="20" y="50" width="6" height="6" fill="#1a56db"/>
    <rect x="32" y="50" width="6" height="6" fill="#1a56db"/>
    <rect x="44" y="50" width="6" height="6" fill="#1a56db"/>
    <rect x="56" y="50" width="6" height="6" fill="#1a56db"/>
    <rect x="68" y="50" width="6" height="6" fill="#1a56db"/>
    <rect x="74" y="50" width="6" height="6" fill="#1a56db"/>
    
    <rect x="20" y="56" width="6" height="6" fill="#1a56db"/>
    <rect x="26" y="56" width="6" height="6" fill="#1a56db"/>
    <rect x="32" y="56" width="6" height="6" fill="#1a56db"/>
    <rect x="38" y="56" width="6" height="6" fill="#1a56db"/>
    <rect x="44" y="56" width="6" height="6" fill="#1a56db"/>
    <rect x="50" y="56" width="6" height="6" fill="#1a56db"/>
    <rect x="56" y="56" width="6" height="6" fill="#1a56db"/>
    <rect x="62" y="56" width="6" height="6" fill="#1a56db"/>
    <rect x="68" y="56" width="6" height="6" fill="#1a56db"/>
    <rect x="74" y="56" width="6" height="6" fill="#1a56db"/>
    
    <rect x="20" y="62" width="6" height="6" fill="#1a56db"/>
    <rect x="38" y="62" width="6" height="6" fill="#1a56db"/>
    <rect x="50" y="62" width="6" height="6" fill="#1a56db"/>
    <rect x="62" y="62" width="6" height="6" fill="#1a56db"/>
    
    <rect x="20" y="68" width="6" height="6" fill="#1a56db"/>
    <rect x="26" y="68" width="6" height="6" fill="#1a56db"/>
    <rect x="38" y="68" width="6" height="6" fill="#1a56db"/>
    <rect x="44" y="68" width="6" height="6" fill="#1a56db"/>
    <rect x="56" y="68" width="6" height="6" fill="#1a56db"/>
    <rect x="68" y="68" width="6" height="6" fill="#1a56db"/>
    <rect x="74" y="68" width="6" height="6" fill="#1a56db"/>
    
    <rect x="26" y="74" width="6" height="6" fill="#1a56db"/>
    <rect x="32" y="74" width="6" height="6" fill="#1a56db"/>
    <rect x="44" y="74" width="6" height="6" fill="#1a56db"/>
    <rect x="50" y="74" width="6" height="6" fill="#1a56db"/>
    <rect x="62" y="74" width="6" height="6" fill="#1a56db"/>
    <rect x="68" y="74" width="6" height="6" fill="#1a56db"/>
    
    <!-- Position detection patterns -->
    <rect x="20" y="20" width="18" height="18" fill="#1a56db"/>
    <rect x="23" y="23" width="12" height="12" fill="white"/>
    <rect x="26" y="26" width="6" height="6" fill="#1a56db"/>
    
    <rect x="62" y="20" width="18" height="18" fill="#1a56db"/>
    <rect x="65" y="23" width="12" height="12" fill="white"/>
    <rect x="68" y="26" width="6" height="6" fill="#1a56db"/>
    
    <rect x="20" y="62" width="18" height="18" fill="#1a56db"/>
    <rect x="23" y="65" width="12" height="12" fill="white"/>
    <rect x="26" y="68" width="6" height="6" fill="#1a56db"/>
  </g>
</svg>