<?xml version="1.0" standalone="yes"?>
<svg xmlns="http://www.w3.org/2000/svg" version="1.1" width="264" height="264">
<rect x="0" y="0" width="264" height="264" fill="#ffffff"/>
<g transform="scale(8)">
<g transform="translate(2,2)">
<path fill-rule="evenodd" d="M11 0L11 1L10 1L10 2L10 3L11 3L11 4L9 4L9 3L8 3L8 4L6 4L6 5L5 5L5 6L4 6L4 5L3 5L3 4L2 4L2 3L3 3L3 2L4 2L4 1L6 1L6 0L11 0zM13 0L13 1L12 1L12 2L11 2L11 3L10 3L10 5L9 5L9 6L10 6L10 7L12 7L12 8L13 8L13 9L12 9L12 11L13 11L13 12L14 12L14 11L15 11L15 10L16 10L16 11L18 11L18 12L19 12L19 13L18 13L18 14L19 14L19 15L18 15L18 16L17 16L17 17L16 17L16 18L15 18L15 19L14 19L14 18L13 18L13 19L14 19L14 20L13 20L13 21L12 21L12 20L11 20L11 21L10 21L10 19L11 19L11 18L10 18L10 17L9 17L9 19L8 19L8 17L7 17L7 19L6 19L6 21L5 21L5 22L3 22L3 23L2 23L2 22L1 22L1 20L0 20L0 18L1 18L1 16L0 16L0 13L1 13L1 14L2 14L2 12L1 12L1 11L0 11L0 10L1 10L1 9L3 9L3 10L4 10L4 9L6 9L6 10L7 10L7 11L8 11L8 12L9 12L9 14L10 14L10 15L11 15L11 14L12 14L12 15L13 15L13 16L15 16L15 15L16 15L16 16L17 16L17 15L16 15L16 14L18 14L18 12L17 12L17 11L16 11L16 10L15 10L15 9L14 9L14 10L13 10L13 9L14 9L14 7L15 7L15 8L16 8L16 7L17 7L17 6L16 6L16 5L14 5L14 3L15 3L15 4L16 4L16 3L17 3L17 1L16 1L16 0L13 0zM19 0L19 2L20 2L20 5L21 5L21 6L22 6L22 7L21 7L21 8L20 8L20 7L19 7L19 6L18 6L18 5L16 5L16 6L15 6L15 5L14 5L14 6L13 6L13 5L12 5L12 4L13 4L13 3L15 3L15 2L15 0L19 0zM24 0L24 3L23 3L23 4L21 4L21 3L22 3L22 2L20 2L20 0L24 0zM7 1L7 2L6 2L6 3L5 3L5 4L4 4L4 5L3 5L3 6L2 6L2 7L1 7L1 6L0 6L0 3L1 3L1 1L7 1zM15 1L15 2L14 2L14 1L15 1zM12 2L12 3L11 3L11 2L12 2zM1 3L1 5L0 5L0 3L1 3zM13 3L13 4L12 4L12 3L13 3zM2 4L2 5L1 5L1 4L2 4zM11 5L11 6L10 6L10 5L11 5zM19 5L19 6L17 6L17 5L19 5zM22 5L22 6L21 6L21 5L22 5zM2 7L2 8L0 8L0 6L1 6L1 7L2 7zM15 7L15 9L14 9L14 7L15 7zM4 8L4 9L3 9L3 8L4 8zM23 8L23 9L24 9L24 12L23 12L23 13L24 13L24 14L23 14L23 16L24 16L24 18L23 18L23 17L22 17L22 20L21 20L21 21L22 21L22 22L23 22L23 24L20 24L20 23L18 23L18 24L17 24L17 23L16 23L16 21L14 21L14 24L12 24L12 23L11 23L11 24L10 24L10 23L9 23L9 22L8 22L8 21L6 21L6 22L5 22L5 24L3 24L3 23L2 23L2 24L0 24L0 23L1 23L1 22L0 22L0 20L1 20L1 21L2 21L2 20L3 20L3 21L4 21L4 20L6 20L6 19L9 19L9 21L10 21L10 22L12 22L12 21L14 21L14 20L15 20L15 18L14 18L14 17L15 17L15 16L16 16L16 15L17 15L17 14L16 14L16 13L15 13L15 12L14 12L14 13L13 13L13 14L12 14L12 13L10 13L10 12L11 12L11 11L12 11L12 10L14 10L14 11L15 11L15 12L16 12L16 13L18 13L18 11L19 11L19 8L21 8L21 7L22 7L22 8L23 8zM7 9L7 10L6 10L6 9L7 9zM9 9L9 10L8 10L8 9L9 9zM3 10L3 11L2 11L2 10L3 10zM11 10L11 11L10 11L10 10L11 10zM21 10L21 11L19 11L19 10L21 10zM4 11L4 13L5 13L5 12L6 12L6 13L8 13L8 11L9 11L9 12L10 12L10 13L9 13L9 14L7 14L7 13L6 13L6 15L8 15L8 16L9 16L9 17L7 17L7 16L6 16L6 15L5 15L5 16L4 16L4 17L3 17L3 18L2 18L2 17L1 17L1 15L3 15L3 14L5 14L5 13L4 13L4 14L3 14L3 13L2 13L2 12L3 12L3 11L4 11zM12 11L12 12L11 12L11 11L12 11zM19 12L19 13L18 13L18 12L19 12zM9 15L9 16L8 16L8 15L9 15zM17 17L17 19L15 19L15 17L17 17zM6 18L6 19L5 19L5 18L6 18zM20 18L20 19L19 19L19 18L20 18zM17 19L17 20L16 20L16 19L17 19zM18 19L18 21L17 21L17 20L16 20L16 21L15 21L15 22L14 22L14 23L13 23L13 22L12 22L12 23L9 23L9 21L10 21L10 22L11 22L11 21L13 21L13 19L18 19zM21 19L21 20L20 20L20 19L21 19zM18 21L18 22L17 22L17 23L16 23L16 22L15 22L15 21L16 21L16 20L18 20L18 21zM21 21L21 22L20 22L20 23L19 23L19 22L18 22L18 21L19 21L19 20L20 20L20 21L21 21zM8 22L8 23L7 23L7 22L8 22z" fill="#1a56db"/>
</g>
</g>
</svg>